<?xml version="1.0" encoding="utf-8"?>
<!-- Generator: Adobe Illustrator 24.1.0, SVG Export Plug-In . SVG Version: 6.00 Build 0)  -->
<svg version="1.1" id="Layer_1" xmlns="http://www.w3.org/2000/svg" xmlns:xlink="http://www.w3.org/1999/xlink" x="0px" y="0px"
	 viewBox="0 0 200 200" style="enable-background:new 0 0 200 200;" xml:space="preserve">
<style type="text/css">
	.st0{fill:#AE7096;}
	.st1{fill:#EA6638;}
	.st2{fill:#45D884;}
</style>
<path class="st1" d="M172.63,99.49c0-8.05-8.5-15.3-22.91-20.35c0.35-0.73,0.69-1.45,1.01-2.17c0.43,0.06,0.87,0.1,1.31,0.1
	c2.49,0,4.98-0.95,6.87-2.84c0,0,0,0,0,0c3.79-3.79,3.79-9.96,0-13.75c-1.04-1.04-2.27-1.79-3.57-2.26
	c-0.17-4.06-1.45-7.31-3.81-9.67c-5.7-5.7-16.83-4.81-30.58,1.8c-0.27-0.79-0.55-1.56-0.84-2.32c2.2-1.78,3.6-4.5,3.6-7.54
	c0-5.36-4.36-9.72-9.72-9.72c-1.38,0-2.69,0.29-3.88,0.81c-2.24-2.06-4.6-3.34-7.05-3.86V22.4c0-1.37-1.11-2.47-2.47-2.47
	s-2.47,1.11-2.47,2.47v5.05H87.98c-1.37,0-2.47,1.11-2.47,2.47v12.06c-5.24,1.37-10.24,3.44-14.92,6.19l-8.54-8.53
	c-0.93-0.93-2.57-0.93-3.5,0L40.74,57.46c-0.97,0.97-0.97,2.53,0,3.5l8.53,8.53c-2.74,4.68-4.82,9.68-6.18,14.92H31.02
	c-1.37,0-2.47,1.11-2.47,2.47v25.21c0,1.37,1.11,2.47,2.47,2.47h12.06c1.37,5.24,3.44,10.24,6.18,14.92l-8.53,8.53
	c-0.97,0.97-0.97,2.53,0,3.5l17.82,17.82c0.97,0.97,2.53,0.97,3.5,0l8.54-8.53c4.68,2.74,9.68,4.82,14.92,6.19v12.06
	c0,1.37,1.11,2.47,2.47,2.47h10.13v5.05c0,1.37,1.11,2.47,2.47,2.47s2.47-1.11,2.47-2.47v-5.33c7.06-1.55,13.35-9.72,17.88-22.63
	c0.73,0.35,1.45,0.69,2.16,1.01c-0.06,0.43-0.1,0.87-0.1,1.31c0,2.6,1.01,5.04,2.85,6.87c1.9,1.89,4.38,2.84,6.87,2.84
	c2.49,0,4.98-0.95,6.87-2.84c1.05-1.05,1.79-2.28,2.26-3.58c4.06-0.18,7.31-1.44,9.67-3.8c5.69-5.69,4.81-16.83-1.8-30.58
	c0.79-0.27,1.56-0.56,2.32-0.84c1.78,2.19,4.5,3.6,7.54,3.6c5.36,0,9.72-4.36,9.72-9.72c0-1.38-0.29-2.69-0.81-3.88
	C171.23,106.02,172.63,102.82,172.63,99.49z M98.12,130.38c-15.94-1.27-28.53-14.63-28.53-30.89c0-16.26,12.59-29.63,28.53-30.89
	V130.38z M98.12,63.64C79.45,64.92,64.65,80.5,64.65,99.49s14.8,34.57,33.47,35.85v31.25h-7.66v-11.53c0-1.16-0.8-2.16-1.93-2.41
	c-6.03-1.36-11.75-3.73-16.99-7.04c-0.98-0.62-2.25-0.48-3.07,0.34l-8.16,8.16l-14.33-14.33l8.16-8.16
	c0.82-0.82,0.96-2.09,0.34-3.07c-3.31-5.24-5.68-10.96-7.04-16.99c-0.25-1.13-1.26-1.93-2.41-1.93H33.49V89.36h11.53
	c1.16,0,2.16-0.8,2.41-1.93c1.36-6.03,3.73-11.75,7.04-16.99c0.62-0.98,0.48-2.25-0.34-3.07l-8.16-8.16l14.33-14.33l8.16,8.16
	c0.82,0.82,2.09,0.96,3.07,0.34c5.24-3.31,10.96-5.68,16.99-7.04c1.13-0.25,1.93-1.26,1.93-2.41V32.4h7.66V63.64z M152.04,62.58
	c1.22,0,2.45,0.47,3.38,1.4c1.86,1.86,1.86,4.89,0,6.75c-1.86,1.86-4.89,1.86-6.75,0c-1.86-1.86-1.86-4.89,0-6.75
	C149.59,63.05,150.81,62.58,152.04,62.58z M148.03,52.05c1.34,1.34,2.11,3.27,2.32,5.74c-1.9,0.33-3.72,1.22-5.19,2.69
	c-3.79,3.79-3.79,9.96,0,13.75c0.31,0.31,0.65,0.59,1,0.86c-0.38,0.83-0.78,1.68-1.2,2.53c-5.53-1.62-11.76-2.94-18.59-3.9
	c-0.95-6.71-2.28-12.99-3.92-18.62C134.3,49.21,143.83,47.85,148.03,52.05z M135.88,92.68c-0.94-4.87-2.85-9.39-5.54-13.34
	c4.4,0.76,8.51,1.69,12.28,2.74C140.68,85.52,138.41,89.08,135.88,92.68z M135.88,106.28c2.57,3.64,4.82,7.2,6.74,10.61
	c-3.81,1.07-7.93,1.99-12.29,2.75C133.03,115.68,134.94,111.16,135.88,106.28z M120.74,69.75c-3.96-2.69-8.49-4.61-13.36-5.54
	c3.65-2.57,7.2-4.82,10.61-6.74C119.06,61.27,119.98,65.39,120.74,69.75z M113.99,35.72c2.63,0,4.78,2.14,4.78,4.77
	s-2.14,4.78-4.78,4.78s-4.77-2.14-4.77-4.78S111.35,35.72,113.99,35.72z M103.06,32.87c1.04,0.38,2.08,1,3.12,1.86
	c-1.2,1.62-1.92,3.61-1.92,5.77c0,5.36,4.36,9.72,9.72,9.72c0.55,0,1.08-0.06,1.6-0.14c0.31,0.83,0.62,1.69,0.92,2.57
	c-4.3,2.35-8.8,5.22-13.45,8.57V32.87z M103.06,166.14v-28.37c4.58,3.3,9.11,6.18,13.46,8.58
	C112.89,157.13,108.11,164.34,103.06,166.14z M118,141.52c-3.44-1.93-7-4.2-10.6-6.74c4.87-0.94,9.39-2.85,13.34-5.54
	C119.98,133.63,119.05,137.75,118,141.52z M103.06,130.38V68.6c15.94,1.27,28.53,14.63,28.53,30.89
	C131.59,115.75,119,129.12,103.06,130.38z M136.1,154.31c-1.86,1.86-4.89,1.86-6.75,0c0,0,0,0,0,0c-0.9-0.9-1.4-2.1-1.4-3.38
	c0-1.28,0.5-2.47,1.4-3.38c0.93-0.93,2.15-1.4,3.38-1.4c1.22,0,2.45,0.47,3.38,1.4C137.96,149.42,137.96,152.45,136.1,154.31z
	 M148.03,146.93c-1.34,1.34-3.27,2.11-5.74,2.32c-0.33-1.9-1.22-3.72-2.69-5.19c-3.79-3.79-9.96-3.79-13.75,0
	c-0.31,0.31-0.59,0.65-0.86,1c-0.83-0.38-1.68-0.78-2.53-1.2c1.62-5.53,2.94-11.76,3.9-18.59c6.71-0.95,12.99-2.28,18.62-3.92
	C150.87,133.21,152.23,142.73,148.03,146.93z M159.59,117.67c-2.63,0-4.78-2.14-4.78-4.78s2.14-4.77,4.78-4.77
	c2.63,0,4.77,2.14,4.77,4.77S162.22,117.67,159.59,117.67z M165.35,105.09c-1.62-1.2-3.61-1.92-5.77-1.92
	c-5.36,0-9.72,4.36-9.72,9.72c0,0.55,0.06,1.08,0.14,1.6c-0.83,0.31-1.69,0.62-2.57,0.92c-2.77-5.06-6.25-10.41-10.4-15.93
	c4.07-5.41,7.58-10.79,10.4-15.93c12.54,4.22,20.24,10,20.24,15.93C167.68,101.35,166.9,103.22,165.35,105.09z"/>
</svg>
