<?xml version="1.0" encoding="utf-8"?>
<!-- Generator: Adobe Illustrator 24.1.2, SVG Export Plug-In . SVG Version: 6.00 Build 0)  -->
<svg version="1.1" id="Layer_1" xmlns="http://www.w3.org/2000/svg" xmlns:xlink="http://www.w3.org/1999/xlink" x="0px" y="0px"
	 viewBox="0 0 200 200" style="enable-background:new 0 0 200 200;" xml:space="preserve">
<style type="text/css">
	.st0{fill:#AE7096;}
	.st1{fill:#EA6638;}
	.st2{fill:#45D884;}
</style>
<path class="st2" d="M115.31,112.73c1.79-7.62,2.77-15.31,2.94-23h15.81c-0.23,6.05-1.34,12.09-3.35,18.08l-4.92,4.92H115.31z
	 M92.4,112.73c-1.87-7.61-2.9-15.31-3.07-23h24.01c-0.18,7.69-1.2,15.39-3.07,23H92.4z M71.17,105.36
	c-1.52-5.18-2.38-10.4-2.58-15.63H84.4c0.17,7.69,1.15,15.38,2.94,23h-1.02C82.02,108.86,76.79,106.33,71.17,105.36z M101.33,37.65
	l1.46,3.11c2.69,5.73,4.86,11.58,6.53,17.49H93.34c1.67-5.91,3.84-11.75,6.53-17.49L101.33,37.65z M110.58,63.17
	c1.66,7.15,2.58,14.39,2.75,21.65H89.32c0.17-7.25,1.09-14.49,2.75-21.65H110.58z M118.25,84.81c-0.16-7.25-1.04-14.49-2.63-21.65
	h13.76c2.81,7.15,4.37,14.39,4.67,21.65H118.25z M84.4,84.81h-15.8c0.3-7.25,1.87-14.5,4.68-21.65h13.76
	C85.44,70.33,84.56,77.56,84.4,84.81z M139,89.73h12.23c-0.01,0.18-0.02,0.36-0.04,0.54c-4.83,2.22-7.97,5.04-8.23,5.29
	c-0.03,0.02-0.05,0.05-0.08,0.08l-5.21,5.21C138.43,97.15,138.87,93.44,139,89.73z M138.99,84.81c-0.27-7.26-1.72-14.5-4.34-21.65
	h10.49c3.55,6.49,5.72,13.84,6.1,21.65H138.99z M132.66,58.25c-2.4-5.41-5.47-10.76-9.22-16.01c7.44,3.73,13.83,9.26,18.61,16.01
	H132.66z M114.91,38.9c0.08,0.17,0.17,0.34,0.28,0.5l2.76,3.67c3.74,4.98,6.83,10.05,9.28,15.18h-12.82
	c-1.78-6.62-4.17-13.16-7.17-19.57l-0.67-1.44C109.43,37.56,112.21,38.12,114.91,38.9z M95.41,38.68c-3,6.41-5.39,12.95-7.17,19.57
	H75.41c2.45-5.13,5.54-10.21,9.28-15.18l2.76-3.67c0.17-0.23,0.29-0.48,0.37-0.74c2.69-0.73,5.46-1.24,8.3-1.51L95.41,38.68z
	 M69.99,58.25H59.83c5.03-7.1,11.85-12.85,19.8-16.58C75.7,47.1,72.48,52.64,69.99,58.25z M56.75,63.17H68
	c-2.62,7.15-4.07,14.39-4.34,21.65H50.65C51.03,77,53.19,69.66,56.75,63.17z M63.66,89.73c0.18,5.07,0.94,10.13,2.28,15.17
	c0,0-0.01,0-0.01,0c-3.97,0-7.78,0.77-11.28,2.18c-2.37-5.51-3.7-11.33-3.99-17.35H63.66z M65.92,109.82
	c6.64,0,12.94,2.54,17.73,7.14c0.46,0.44,1.07,0.69,1.7,0.69h5.11c0.01,0,0.01,0,0.02,0c0,0,0.01,0,0.01,0h21.67c0,0,0.01,0,0.01,0
	c0.01,0,0.01,0,0.02,0h14.62c0,0,0,0,0,0c1.33,0,2.5,0.64,3.21,1.77c0.7,1.1,0.79,2.41,0.24,3.59c-2.97,6.38-8.11,9.61-15.26,9.61
	H77.87c-1.36,0-2.46,1.1-2.46,2.46s1.1,2.46,2.46,2.46h37.14c11.5,0,17.07-6.77,19.71-12.45c1.25-2.69,1.05-5.8-0.55-8.31
	c-0.72-1.12-1.67-2.03-2.76-2.71l14.9-14.9c0.34-0.3,3.3-2.85,7.61-4.69c5.88-2.52,11.44-2.62,16.53-0.3
	c1.32,0.6,2.23,1.77,2.49,3.21c0.26,1.46-0.18,2.89-1.23,3.93l-54.56,54.56c-1.99,1.99-4.63,3.08-7.44,3.08H67.12l-26.59-26.59
	C42.04,119.64,52.99,109.82,65.92,109.82z M64.36,163.14C64.36,163.14,64.37,163.14,64.36,163.14l3.08,3.08l-6.36,6.36l-32.34-32.34
	l6.36-6.36L64.36,163.14z M26.42,146l28.89,28.89l3.48,3.48c0.48,0.47,1.1,0.71,1.72,0.71c0.63,0,1.26-0.24,1.74-0.72l10.4-10.4
	c0.96-0.96,0.96-2.52,0-3.48l-0.62-0.62h37.68c4.13,0,8.01-1.61,10.92-4.52l54.56-54.56c2.17-2.17,3.13-5.27,2.59-8.29
	c-0.54-3-2.52-5.55-5.29-6.81c-5.89-2.68-11.54-2.49-16.3-1.22c0.01-0.4,0.03-0.8,0.03-1.2c0-9.99-2.68-19.36-7.33-27.45
	c-0.09-0.22-0.21-0.43-0.35-0.62C138.9,42.94,121.18,32,100.94,32c-20.24,0-37.96,10.94-47.59,27.2c-0.15,0.19-0.27,0.39-0.36,0.62
	c-4.65,8.09-7.33,17.46-7.33,27.45c0,7.68,1.55,15.07,4.58,22.02c-6.87,4.15-12.02,10.94-13.96,18.98
	c-0.93-0.49-2.17-0.37-2.93,0.39l-10.4,10.4c-0.96,0.96-0.96,2.5-0.01,3.46L26.42,146z"/>
</svg>
