<?xml version="1.0" encoding="utf-8"?>
<!-- Generator: Adobe Illustrator 24.1.0, SVG Export Plug-In . SVG Version: 6.00 Build 0)  -->
<svg version="1.1" id="Layer_1" xmlns="http://www.w3.org/2000/svg" xmlns:xlink="http://www.w3.org/1999/xlink" x="0px" y="0px"
	 viewBox="0 0 200 200" style="enable-background:new 0 0 200 200;" xml:space="preserve">
<style type="text/css">
	.st0{fill:#AE7096;}
	.st1{fill:#EA6638;}
	.st2{fill:#45D884;}
</style>
<g>
	<path class="st0" d="M97.61,32.96c0-1.37,1.11-2.47,2.47-2.47s2.47,1.11,2.47,2.47v12.3c0,1.37-1.11,2.47-2.47,2.47
		s-2.47-1.11-2.47-2.47V32.96z"/>
	<path class="st0" d="M51.23,96.59h-12.3c-1.37,0-2.47-1.11-2.47-2.47s1.11-2.47,2.47-2.47h12.3c1.37,0,2.47,1.11,2.47,2.47
		S52.6,96.59,51.23,96.59z"/>
	<path class="st0" d="M55.09,49.12c0.97-0.97,2.53-0.97,3.5,0l8.7,8.7c0.97,0.97,0.97,2.53,0,3.5c-0.48,0.48-1.12,0.72-1.75,0.72
		s-1.27-0.24-1.75-0.72l-8.7-8.7C54.13,51.65,54.13,50.09,55.09,49.12z"/>
	<path class="st0" d="M145.08,52.62l-8.7,8.7c-0.48,0.48-1.12,0.72-1.75,0.72s-1.27-0.24-1.75-0.72c-0.97-0.97-0.97-2.53,0-3.5
		l8.7-8.7c0.96-0.97,2.53-0.97,3.5,0C146.04,50.09,146.04,51.65,145.08,52.62z"/>
	<path class="st0" d="M161.24,96.59h-12.3c-1.37,0-2.47-1.11-2.47-2.47s1.11-2.47,2.47-2.47h12.3c1.37,0,2.47,1.11,2.47,2.47
		S162.6,96.59,161.24,96.59z"/>
	<path class="st0" d="M100.08,55.14c-21.57,0-39.12,17.55-39.12,39.12c0,12.13,5.68,23.59,15.25,30.98v31.62
		c0,1.37,1.11,2.47,2.47,2.47h0.74c3.39,5.94,11.42,9.83,20.66,9.83s17.27-3.89,20.66-9.83h0.73c0,0,0.01,0,0.01,0
		c0.15,0,0.3-0.02,0.45-0.05c0.05-0.01,0.09-0.02,0.13-0.03c0.1-0.02,0.2-0.05,0.29-0.09c0.05-0.02,0.1-0.04,0.15-0.06
		c0.09-0.04,0.18-0.09,0.27-0.15c0.04-0.02,0.08-0.04,0.11-0.07c0.24-0.17,0.45-0.37,0.62-0.62c0.03-0.04,0.05-0.08,0.07-0.11
		c0.05-0.09,0.1-0.17,0.14-0.27c0.02-0.05,0.05-0.11,0.07-0.16c0.02-0.04,0.04-0.08,0.05-0.12c0.01-0.04,0.01-0.08,0.02-0.12
		c0.02-0.08,0.04-0.17,0.05-0.25c0.01-0.09,0.02-0.17,0.03-0.26c0-0.04,0.01-0.08,0.01-0.12v-31.62
		c9.57-7.39,15.25-18.85,15.25-30.98C139.21,72.69,121.66,55.14,100.08,55.14z M81.16,154.39v-7.63l24.24,7.63H81.16z
		 M100.08,164.23c-5.89,0-11.24-1.9-14.42-4.89h28.84C111.33,162.33,105.98,164.23,100.08,164.23z M119.01,153.49l-37.85-11.92
		V131.4l37.85,11.92V153.49z M119.01,138.13L83.1,126.82h35.91V138.13z M120.22,121.95H79.95c-8.8-6.43-14.04-16.71-14.04-27.61
		c0-18.85,15.33-34.18,34.18-34.18s34.18,15.33,34.18,34.18C134.26,105.24,129.02,115.52,120.22,121.95z"/>
</g>
</svg>
