<?xml version="1.0" encoding="utf-8"?>
<!-- Generator: Adobe Illustrator 24.1.0, SVG Export Plug-In . SVG Version: 6.00 Build 0)  -->
<svg version="1.1" id="Layer_1" xmlns="http://www.w3.org/2000/svg" xmlns:xlink="http://www.w3.org/1999/xlink" x="0px" y="0px"
	 viewBox="0 0 200 200" style="enable-background:new 0 0 200 200;" xml:space="preserve">
<style type="text/css">
	.st0{fill:#AE7096;}
	.st1{fill:#EA6638;}
	.st2{fill:#45D884;}
</style>
<g>
	<g>
		<path class="st0" d="M108.62,122.17H91.55c-0.76,0-1.46-0.34-1.91-0.93c-0.45-0.59-0.59-1.35-0.39-2.08
			c4.38-15.7,8.31-18.99,10.83-18.99s6.45,3.29,10.83,18.99c0.21,0.73,0.07,1.49-0.38,2.09
			C110.08,121.83,109.38,122.17,108.62,122.17z M93.71,118.17h12.75c-2.11-6.9-4.89-13.03-6.37-13.95
			C98.6,105.13,95.82,111.26,93.71,118.17z M100.23,104.14L100.23,104.14z M99.93,104.14L99.93,104.14L99.93,104.14z"/>
		<path class="st0" d="M100.08,176c-3.1,0-8.51-0.36-8.74-0.37c-1.33-0.08-2.37-1.2-2.37-2.53v-45.49c0-1.38,1.12-2.5,2.5-2.5h17.22
			c1.38,0,2.5,1.12,2.5,2.5v45.49c0,1.33-1.04,2.44-2.37,2.53C108.6,175.64,103.19,176,100.08,176z M92.97,171.72
			c1.83,0.11,5.06,0.28,7.11,0.28c2.05,0,5.29-0.17,7.11-0.28v-42.61H92.97V171.72z M108.56,171.64
			C108.56,171.64,108.56,171.64,108.56,171.64C108.56,171.64,108.56,171.64,108.56,171.64z M91.6,171.64
			C91.6,171.64,91.6,171.64,91.6,171.64C91.6,171.64,91.6,171.64,91.6,171.64z"/>
		<path class="st0" d="M166.78,39.85h-1.69c-6.68,0-12.2,4.99-13.07,11.43h-37.87v-8.96c0-1.37-1.11-2.47-2.47-2.47H88.5
			c-1.37,0-2.47,1.11-2.47,2.47v8.96H48.15c-0.87-6.44-6.4-11.43-13.08-11.43h-1.69c-7.28,0-13.21,5.93-13.21,13.21v1.69
			c0,7.28,5.93,13.21,13.21,13.21h1.69c6.79,0,12.39-5.14,13.12-11.74h28.59c-17.35,7.5-30.53,23.16-34.58,41.9h-3.1
			c-0.88,0-1.7,0.47-2.14,1.24l-5.79,10.03c-0.44,0.77-0.44,1.71,0,2.47l5.79,10.03c0.44,0.77,1.26,1.24,2.14,1.24h11.58
			c0.88,0,1.7-0.47,2.14-1.24l5.79-10.03c0.44-0.76,0.44-1.71,0-2.47l-5.79-10.03c-0.44-0.76-1.26-1.24-2.14-1.24h-3.4
			c4.56-19.24,19.64-34.77,38.74-39.9v7.26c0,1.37,1.11,2.47,2.47,2.47h23.17c1.37,0,2.47-1.11,2.47-2.47v-7.26
			c19.1,5.13,34.18,20.66,38.74,39.9h-7.64c-1.37,0-2.47,1.11-2.47,2.47v20.06c0,1.37,1.11,2.47,2.47,2.47h20.06
			c1.37,0,2.47-1.11,2.47-2.47v-20.06c0-1.37-1.11-2.47-2.47-2.47h-7.34c-4.05-18.75-17.23-34.41-34.58-41.9h28.59
			c0.74,6.59,6.34,11.74,13.12,11.74h1.69c7.28,0,13.21-5.93,13.21-13.21v-1.69C179.99,45.78,174.07,39.85,166.78,39.85z
			 M43.34,54.76c0,4.56-3.71,8.26-8.26,8.26h-1.69c-4.56,0-8.26-3.71-8.26-8.26v-1.69c0-4.56,3.71-8.26,8.26-8.26h1.69
			c4.56,0,8.26,3.71,8.26,8.26V54.76z M49.26,103.08l4.36,7.56l-4.36,7.56h-8.73l-4.36-7.56l4.36-7.56h3.6
			c0.04,0,0.07,0.01,0.11,0.01c0.04,0,0.07-0.01,0.11-0.01H49.26z M109.19,55.09C109.19,55.09,109.19,55.09,109.19,55.09v7.93H90.97
			v-7.93c0,0,0,0,0,0V44.8h18.22V55.09z M155.93,103.08C155.93,103.08,155.93,103.08,155.93,103.08l6.9,0v15.12h-15.12v-15.12
			L155.93,103.08C155.92,103.08,155.92,103.08,155.93,103.08z M175.05,54.76c0,4.56-3.71,8.26-8.26,8.26h-1.69
			c-4.56,0-8.26-3.71-8.26-8.26v-1.69c0-4.56,3.71-8.26,8.26-8.26h1.69c4.56,0,8.26,3.71,8.26,8.26V54.76z"/>
	</g>
	<path class="st0" d="M97.61,137.35c0-1.37,1.11-2.47,2.47-2.47c1.37,0,2.47,1.11,2.47,2.47v12.3c0,1.37-1.11,2.47-2.47,2.47
		c-1.37,0-2.47-1.11-2.47-2.47V137.35z"/>
</g>
</svg>
