<?xml version="1.0" encoding="utf-8"?>
<!-- Generator: Adobe Illustrator 24.1.2, SVG Export Plug-In . SVG Version: 6.00 Build 0)  -->
<svg version="1.1" id="Layer_1" xmlns="http://www.w3.org/2000/svg" xmlns:xlink="http://www.w3.org/1999/xlink" x="0px" y="0px"
	 viewBox="0 0 200 200" style="enable-background:new 0 0 200 200;" xml:space="preserve">
<style type="text/css">
	.st0{fill:#AE7096;}
	.st1{fill:#EA6638;}
	.st2{fill:#45D884;}
</style>
<path class="st2" d="M121.79,35.92c-13.01-14.34-25.82-22.89-26.36-23.24c-0.02-0.02-0.05-0.02-0.07-0.04
	c-0.11-0.07-0.23-0.13-0.35-0.18c-0.08-0.03-0.16-0.05-0.24-0.07c-0.07-0.02-0.14-0.05-0.22-0.06c-0.08-0.02-0.16-0.02-0.24-0.02
	c-0.08-0.01-0.16-0.02-0.24-0.02c-0.07,0-0.13,0.01-0.19,0.02c-0.09,0.01-0.19,0.01-0.28,0.03c-0.06,0.01-0.11,0.03-0.17,0.05
	c-0.1,0.03-0.19,0.05-0.28,0.09c-0.1,0.04-0.19,0.1-0.29,0.15c-0.05,0.03-0.09,0.04-0.14,0.07c-0.54,0.36-13.35,8.9-26.36,23.24
	C49,55.06,39.83,75.38,39.83,94.68c0,19.33,9.07,38.86,26.22,56.47c11.69,12,23.19,19.19,25.58,20.63v20.31
	c0,1.35,1.1,2.45,2.45,2.45c1.35,0,2.45-1.1,2.45-2.45v-20.31c2.39-1.44,13.9-8.63,25.58-20.63c17.15-17.61,26.21-37.14,26.21-56.47
	C148.32,75.38,139.15,55.06,121.79,35.92z M94.08,100.71c1.54,0,2.8,1.26,2.8,2.8c0,1.55-1.26,2.8-2.8,2.8c-1.55,0-2.8-1.26-2.8-2.8
	C91.27,101.96,92.53,100.71,94.08,100.71z M96.52,165.96v-29.54l20.8-14.05c1.25,0.88,2.77,1.42,4.42,1.42c4.25,0,7.7-3.45,7.7-7.7
	c0-4.25-3.46-7.7-7.7-7.7c-4.25,0-7.7,3.45-7.7,7.7c0,0.81,0.16,1.58,0.4,2.32l-17.91,12.11v-19.13c0-0.2-0.03-0.4-0.08-0.59
	c2.69-0.88,4.72-3.17,5.2-6.01l15.34-12.3c1.05-0.85,1.22-2.39,0.38-3.44c-0.85-1.05-2.39-1.23-3.44-0.38l-13.37,10.72
	c-0.94-1.47-2.36-2.57-4.03-3.14V83.52l14.88-14.44c1.01,0.49,2.13,0.78,3.32,0.78c4.25,0,7.7-3.45,7.7-7.7c0-4.25-3.46-7.7-7.7-7.7
	c-4.25,0-7.7,3.45-7.7,7.7c0,1.26,0.33,2.44,0.88,3.49L96.52,76.69V46.48c0-1.35-1.1-2.45-2.45-2.45c-1.35,0-2.45,1.1-2.45,2.45
	v30.22L80.25,65.66c0.54-1.05,0.88-2.23,0.88-3.49c0-4.25-3.45-7.7-7.7-7.7c-4.25,0-7.7,3.45-7.7,7.7c0,4.25,3.46,7.7,7.7,7.7
	c1.19,0,2.31-0.3,3.32-0.78l14.88,14.44v12.72c-1.68,0.57-3.09,1.67-4.03,3.14L74.23,88.67c-1.06-0.85-2.6-0.68-3.44,0.38
	c-0.85,1.06-0.68,2.6,0.38,3.44l15.34,12.3c0.48,2.84,2.51,5.13,5.2,6.01c-0.05,0.19-0.08,0.38-0.08,0.59v19.13l-17.91-12.11
	c0.24-0.74,0.4-1.51,0.4-2.32c0-4.25-3.46-7.7-7.7-7.7c-4.25,0-7.7,3.45-7.7,7.7c0,4.25,3.45,7.7,7.7,7.7
	c1.65,0,3.17-0.53,4.42-1.42l20.8,14.05v29.54c-10.64-7.04-46.9-33.78-46.9-71.28c0-39.75,41.29-71.22,49.35-76.97
	c8.05,5.76,49.35,37.22,49.35,76.97C143.42,132.18,107.17,158.92,96.52,165.96z M118.94,116.09c0-1.55,1.26-2.8,2.8-2.8
	s2.8,1.26,2.8,2.8c0,1.54-1.26,2.8-2.8,2.8S118.94,117.63,118.94,116.09z M111.92,62.17c0-1.54,1.26-2.8,2.8-2.8
	c1.54,0,2.8,1.26,2.8,2.8c0,1.55-1.26,2.8-2.8,2.8C113.18,64.97,111.92,63.71,111.92,62.17z M73.43,64.97c-1.55,0-2.8-1.26-2.8-2.8
	c0-1.54,1.26-2.8,2.8-2.8s2.8,1.26,2.8,2.8C76.23,63.71,74.97,64.97,73.43,64.97z M66.41,118.89c-1.55,0-2.8-1.26-2.8-2.8
	c0-1.55,1.26-2.8,2.8-2.8c1.54,0,2.8,1.26,2.8,2.8C69.21,117.63,67.95,118.89,66.41,118.89z"/>
</svg>
