<?xml version="1.0" encoding="utf-8"?>
<!-- Generator: Adobe Illustrator 24.1.0, SVG Export Plug-In . SVG Version: 6.00 Build 0)  -->
<svg version="1.1" id="Layer_1" xmlns="http://www.w3.org/2000/svg" xmlns:xlink="http://www.w3.org/1999/xlink" x="0px" y="0px"
	 viewBox="0 0 200 200" style="enable-background:new 0 0 200 200;" xml:space="preserve">
<style type="text/css">
	.st0{fill:#AE7096;}
	.st1{fill:#EA6638;}
	.st2{fill:#45D884;}
</style>
<g>
	<path class="st1" d="M53.71,92.83c0.05-0.04,0.11-0.08,0.15-0.13l1.69-1.69c7.46-6.39,18.73-6.07,25.79,0.99l16.36,16.36
		c-1.07-0.15-2.16-0.23-3.28-0.23c-5.38,0-10.36,1.78-14.36,4.79l-11.83-11.83c-0.97-0.97-2.53-0.97-3.5,0
		c-0.97,0.97-0.97,2.53,0,3.5l11.7,11.7c-3.71,4.22-5.97,9.75-5.97,15.8v2.8l-16.01-16.01c-3.59-3.59-5.57-8.36-5.57-13.44
		C48.9,100.74,50.61,96.31,53.71,92.83z M109.84,67.31l17.26,17.26l-5.87,5.87l-37.7-37.7l5.87-5.87l17.26,17.26
		C107.63,65.28,108.69,66.35,109.84,67.31z M111.84,88.5l-13.49,13.49l-13.5-13.5c-5.44-5.44-12.87-7.71-19.97-6.81l20.07-20.07
		L111.84,88.5z M75.42,132.09c0-10.48,8.53-19.01,19.01-19.01s19.01,8.53,19.01,19.01v31.37H75.42V132.09z M128.12,178.36v-12.43
		c0-1.37-1.11-2.47-2.48-2.47h-7.25v-31.37c0-6.39-2.52-12.19-6.61-16.49c-0.11-0.2-0.24-0.4-0.41-0.57l-9.53-9.53l13.71-13.71
		l3.92,3.92c0.46,0.46,1.09,0.72,1.75,0.72c0.66,0,1.29-0.26,1.75-0.72l9.37-9.37c0.97-0.97,0.97-2.53,0-3.5l-9.62-9.62
		c1.33,0.21,2.69,0.32,4.07,0.32c14.53,0,26.35-11.82,26.35-26.35c0-1.37-1.11-2.47-2.48-2.47c-1.37,0-2.48,1.11-2.48,2.47
		c0,11.8-9.6,21.4-21.4,21.4c-5.15,0-9.88-1.83-13.57-4.87l-2.96-2.96c-3.04-3.7-4.87-8.43-4.87-13.58c0-11.8,9.6-21.4,21.4-21.4
		c1.37,0,2.48-1.11,2.48-2.47c0-1.37-1.11-2.47-2.48-2.47c-14.53,0-26.35,11.82-26.35,26.35c0,1.38,0.11,2.74,0.32,4.07l-9.61-9.62
		c-0.46-0.46-1.09-0.72-1.75-0.72c-0.66,0-1.29,0.26-1.75,0.72L78.28,51c-0.97,0.97-0.97,2.53,0,3.5l3.4,3.4L52.29,87.28
		c-0.45,0.39-0.89,0.79-1.32,1.21c-4.52,4.53-7.02,10.54-7.02,16.94s2.49,12.42,7.02,16.94l19.51,19.51v21.57h-5.22
		c-1.37,0-2.48,1.11-2.48,2.47v12.43l4.95,1.64v-11.59h5.22h42.97h7.25V180L128.12,178.36z"/>
	<path class="st1" d="M94.43,125.42c-1.37,0-2.48,1.11-2.48,2.47v23.81c0,1.37,1.11,2.47,2.48,2.47c1.37,0,2.48-1.11,2.48-2.47
		V127.9C96.91,126.53,95.8,125.42,94.43,125.42z"/>
</g>
</svg>
