<?xml version="1.0" encoding="utf-8"?>
<!-- Generator: Adobe Illustrator 24.1.2, SVG Export Plug-In . SVG Version: 6.00 Build 0)  -->
<svg version="1.1" id="Layer_1" xmlns="http://www.w3.org/2000/svg" xmlns:xlink="http://www.w3.org/1999/xlink" x="0px" y="0px"
	 viewBox="0 0 200 200" style="enable-background:new 0 0 200 200;" xml:space="preserve">
<style type="text/css">
	.st0{fill:#AE7096;}
	.st1{fill:#EA6638;}
	.st2{fill:#45D884;}
</style>
<g>
	<path class="st2" d="M193.02,121.64c-3.97-5.43-9.49-9.45-15.69-11.65c6-3.71,10.03-10.33,10.03-17.89
		c0-8.58-5.17-15.96-12.55-19.23c-1.77-8.98-8.05-16.26-16.26-19.55c4.4-3.11,7.29-8.22,7.29-14c0-9.45-7.69-17.14-17.14-17.14
		c-9.45,0-17.14,7.69-17.14,17.14c0,5.77,2.88,10.88,7.27,13.99c-4.37,1.74-8.21,4.62-11.11,8.34
		c-2.8-13.25-14.57-23.23-28.65-23.23c-14.02,0-25.76,9.92-28.61,23.1c-2.89-3.65-6.69-6.49-11.01-8.21
		c4.39-3.11,7.27-8.21,7.27-13.99c0-9.45-7.69-17.14-17.14-17.14c-9.45,0-17.14,7.69-17.14,17.14c0,5.78,2.89,10.9,7.29,14
		c-8.18,3.28-14.45,10.53-16.25,19.48C16,76.02,10.76,83.46,10.76,92.1c0,7.56,4.02,14.18,10.03,17.89
		c-6.2,2.2-11.72,6.22-15.69,11.64c-0.82,1.13-0.58,2.71,0.55,3.53c1.13,0.82,2.71,0.58,3.53-0.55
		c5.27-7.19,13.72-11.49,22.62-11.49c9.03,0,17.42,4.32,22.69,11.6c-1.36,4.38-2.1,9.04-2.1,13.86v33.59c0,1.4,1.13,2.53,2.53,2.53
		c1.4,0,2.53-1.13,2.53-2.53v-33.59c0-17.41,10.75-32.35,25.96-38.55l13.13,32.56v49.72c0,1.4,1.13,2.53,2.53,2.53
		c1.4,0,2.53-1.13,2.53-2.53v-49.72l13.1-32.57c15.23,6.19,25.99,21.14,25.99,38.57v33.59c0,1.4,1.13,2.53,2.53,2.53
		c1.4,0,2.53-1.13,2.53-2.53v-33.59c0-4.83-0.74-9.48-2.1-13.86c5.27-7.28,13.66-11.59,22.69-11.59c8.9,0,17.36,4.3,22.62,11.49
		c0.83,1.13,2.41,1.37,3.53,0.55C193.6,124.34,193.84,122.76,193.02,121.64z M182.3,92.1c0,8.81-7.17,15.98-15.98,15.98
		c-8.81,0-15.98-7.17-15.98-15.98c0-8.81,7.17-15.98,15.98-15.98c1.77,0,3.47,0.3,5.06,0.84c0.22,0.12,0.46,0.21,0.72,0.26
		C178.06,79.54,182.3,85.33,182.3,92.1z M136.6,39.31c0-6.66,5.42-12.09,12.09-12.09s12.09,5.42,12.09,12.09
		s-5.42,12.09-12.09,12.09S136.6,45.97,136.6,39.31z M99.06,43.46c13.36,0,24.23,10.87,24.23,24.23c0,13.36-10.87,24.23-24.23,24.23
		c-13.36,0-24.23-10.87-24.23-24.23C74.83,54.33,85.7,43.46,99.06,43.46z M37.48,39.31c0-6.66,5.42-12.09,12.09-12.09
		c6.66,0,12.09,5.42,12.09,12.09S56.23,51.4,49.56,51.4C42.9,51.4,37.48,45.97,37.48,39.31z M15.81,92.1
		c0-6.75,4.21-12.52,10.14-14.86c0.41-0.05,0.8-0.19,1.13-0.41c1.49-0.46,3.08-0.71,4.72-0.71c8.81,0,15.98,7.17,15.98,15.98
		c0,8.81-7.17,15.98-15.98,15.98C22.98,108.08,15.81,100.91,15.81,92.1z M56.58,119.27c-3.75-4.26-8.49-7.43-13.77-9.3
		c6-3.71,10.01-10.33,10.01-17.88c0-11.6-9.44-21.04-21.03-21.04c-0.93,0-1.83,0.08-2.73,0.2c2.87-8.66,11.09-14.81,20.5-14.81
		c9.24,0,17.42,5.85,20.42,14.57c1.14,9.98,7.32,18.44,15.93,22.79c-0.56,0.16-1.11,0.34-1.65,0.52c-0.13,0.03-0.26,0.06-0.38,0.11
		c-0.04,0.01-0.07,0.04-0.1,0.05C71.69,98.7,61.85,107.73,56.58,119.27z M99.05,125.34L88.2,98.41c3.47-0.94,7.1-1.45,10.86-1.45
		c3.75,0,7.38,0.51,10.83,1.44L99.05,125.34z M141.53,119.27c-5.29-11.57-15.16-20.62-27.28-24.8c-0.01-0.01-0.03-0.02-0.04-0.02
		c-0.05-0.02-0.1-0.03-0.15-0.04c-0.61-0.21-1.23-0.4-1.85-0.59c8.46-4.28,14.56-12.52,15.85-22.28c0.06-0.11,0.11-0.22,0.15-0.34
		c2.95-8.82,11.18-14.75,20.48-14.75c9.42,0,17.64,6.16,20.51,14.83c-0.94-0.13-1.9-0.22-2.88-0.22c-11.6,0-21.03,9.44-21.03,21.04
		c0,7.55,4.02,14.17,10.01,17.88C150.02,111.84,145.28,115.02,141.53,119.27z"/>
	<path class="st2" d="M128.49,129.58h-15.86c-1.4,0-2.53,1.13-2.53,2.53v13.04c0,0.9,0.48,1.73,1.26,2.19l7.93,4.6
		c0.39,0.23,0.83,0.34,1.27,0.34c0.36,0,0.73-0.08,1.07-0.24l7.93-3.71c0.89-0.42,1.46-1.31,1.46-2.29V132.1
		C131.02,130.71,129.89,129.58,128.49,129.58z M125.96,144.43l-5.28,2.47l-5.53-3.2v-9.06h10.81V144.43z"/>
</g>
</svg>
