<?xml version="1.0" encoding="utf-8"?>
<!-- Generator: Adobe Illustrator 24.1.0, SVG Export Plug-In . SVG Version: 6.00 Build 0)  -->
<svg version="1.1" id="Layer_1" xmlns="http://www.w3.org/2000/svg" xmlns:xlink="http://www.w3.org/1999/xlink" x="0px" y="0px"
	 viewBox="0 0 200 200" style="enable-background:new 0 0 200 200;" xml:space="preserve">
<style type="text/css">
	.st0{fill:#AE7096;}
	.st1{fill:#EA6638;}
	.st2{fill:#45D884;}
</style>
<path class="st0" d="M33.86,124.33c-0.44,0.85-1.3,1.34-2.2,1.34c-0.38,0-0.77-0.09-1.13-0.28l-5.26-2.72
	c-0.89-0.46-1.42-1.42-1.33-2.42c0.09-1,0.78-1.85,1.74-2.14l3.8-1.17c1.31-0.4,2.69,0.33,3.09,1.64c0.23,0.75,0.09,1.52-0.32,2.12
	L32.8,121C34.01,121.63,34.49,123.12,33.86,124.33z"/>
<g>
	<path class="st0" d="M174.9,97.63l-19.68-10.17l19.28-5.92c0.96-0.3,1.65-1.14,1.74-2.14c0.09-1-0.44-1.96-1.33-2.42l-54.98-28.39
		c-0.57-0.3-1.24-0.36-1.86-0.17L25.68,76.81c-0.96,0.3-1.65,1.14-1.74,2.14c-0.09,1,0.44,1.96,1.33,2.42l19.68,10.17l-19.28,5.93
		c-0.96,0.3-1.65,1.14-1.74,2.14c-0.09,1,0.44,1.96,1.33,2.42l19.68,10.17l-3.66,1.13c-1.3,0.4-2.04,1.78-1.64,3.09
		c0.33,1.06,1.31,1.75,2.36,1.75c0.24,0,0.49-0.04,0.73-0.11l8.49-2.61l29.01,14.98c0.01,0.01,0.02,0.01,0.03,0.01
		c0.16,0.08,0.32,0.14,0.49,0.18c0.03,0.01,0.06,0.01,0.08,0.02c0.17,0.04,0.35,0.06,0.53,0.06c0,0,0,0,0.01,0
		c0.18,0,0.35-0.03,0.53-0.06c0.04-0.01,0.07-0.01,0.11-0.02c0.03-0.01,0.06-0.01,0.09-0.02l66.91-20.57
		c0.23,0.41,0.57,0.76,1.02,0.99l8.79,4.54c0.36,0.19,0.75,0.28,1.13,0.28c0.9,0,1.76-0.49,2.2-1.34c0.63-1.21,0.15-2.7-1.06-3.33
		l-5.89-3.04l19.28-5.93c0.96-0.3,1.65-1.14,1.74-2.14C176.31,99.05,175.79,98.09,174.9,97.63z M32.92,79.76l85.62-26.32l48.7,25.15
		l-85.62,26.32l-13.98-7.22c0,0,0,0-0.01,0c-0.15-0.1-0.3-0.18-0.46-0.24l-14.53-7.5c0,0-0.01,0-0.01-0.01L32.92,79.76z
		 M42.64,105.43l-9.72-5.02l16.33-5.02L42.64,105.43z M52.64,110.6c-0.01,0-0.01-0.01-0.02-0.01l-5.56-2.87l7.41-11.26l8.22,4.24
		l-7.41,11.26L52.64,110.6z M59.69,114.24l7.41-11.26l8.22,4.24l-7.41,11.26L59.69,114.24z M80.54,125.01l-8.22-4.24l7.41-11.26
		l0.51,0.26c0.35,0.18,0.74,0.28,1.13,0.28c0.24,0,0.49-0.04,0.73-0.11l10.48-3.22L80.54,125.01z M87.23,123.84l12.78-19.41
		l14.13-4.34l-12.78,19.41L87.23,123.84z M108.78,117.21l12.78-19.41l14.13-4.34l-12.78,19.41L108.78,117.21z M144.46,106.25
		l-14.13,4.34l12.78-19.41l5.34-1.64l5.23,2.7L144.46,106.25z M151.88,103.97l6.22-9.44l9.14,4.72L151.88,103.97z"/>
	<path class="st0" d="M53.63,134.54c-0.44,0.85-1.3,1.34-2.2,1.34c-0.38,0-0.77-0.09-1.13-0.28l-8.79-4.54
		c-1.21-0.63-1.69-2.12-1.06-3.33c0.63-1.21,2.12-1.69,3.33-1.06l8.79,4.54C53.78,131.84,54.26,133.33,53.63,134.54z"/>
	<path class="st0" d="M73.4,144.75c-0.44,0.85-1.3,1.34-2.2,1.34c-0.38,0-0.77-0.09-1.13-0.28l-8.79-4.54
		c-1.21-0.63-1.69-2.12-1.06-3.33c0.63-1.21,2.12-1.69,3.33-1.06l8.79,4.54C73.55,142.05,74.03,143.54,73.4,144.75z"/>
	<path class="st0" d="M92.43,148.06l-9.45,2.91c-0.24,0.07-0.49,0.11-0.73,0.11c-1.06,0-2.04-0.68-2.36-1.75
		c-0.4-1.31,0.33-2.69,1.64-3.09l9.45-2.91c1.31-0.4,2.69,0.33,3.09,1.64C94.47,146.28,93.74,147.66,92.43,148.06z"/>
	<path class="st0" d="M113.7,141.53l-9.45,2.91c-0.24,0.07-0.49,0.11-0.73,0.11c-1.06,0-2.04-0.68-2.36-1.75
		c-0.4-1.31,0.33-2.69,1.64-3.09l9.45-2.91c1.31-0.4,2.69,0.33,3.09,1.64C115.74,139.74,115.01,141.13,113.7,141.53z"/>
	<path class="st0" d="M134.97,134.99l-9.45,2.91c-0.24,0.07-0.49,0.11-0.73,0.11c-1.06,0-2.04-0.68-2.36-1.75
		c-0.4-1.31,0.33-2.69,1.64-3.09l9.45-2.91c1.31-0.4,2.69,0.33,3.09,1.64C137.01,133.2,136.28,134.59,134.97,134.99z"/>
	<path class="st0" d="M156.24,128.45l-9.45,2.91c-0.24,0.07-0.49,0.11-0.73,0.11c-1.06,0-2.04-0.68-2.36-1.75
		c-0.4-1.3,0.33-2.69,1.64-3.09l9.45-2.91c1.31-0.4,2.69,0.33,3.09,1.64C158.28,126.67,157.55,128.05,156.24,128.45z"/>
</g>
<path class="st0" d="M176.22,120.7c-0.09,1-0.78,1.85-1.74,2.14l-6.43,1.98c-0.24,0.07-0.49,0.11-0.73,0.11
	c-1.06,0-2.04-0.68-2.36-1.75c-0.4-1.31,0.33-2.69,1.64-3.09l1.91-0.59c-0.1-0.53-0.04-1.1,0.23-1.61c0.63-1.21,2.12-1.69,3.33-1.06
	l2.81,1.45C175.79,118.74,176.31,119.7,176.22,120.7z"/>
</svg>
