<?xml version="1.0" encoding="utf-8"?>
<!-- Generator: Adobe Illustrator 24.1.0, SVG Export Plug-In . SVG Version: 6.00 Build 0)  -->
<svg version="1.1" id="Layer_1" xmlns="http://www.w3.org/2000/svg" xmlns:xlink="http://www.w3.org/1999/xlink" x="0px" y="0px"
	 viewBox="0 0 200 200" style="enable-background:new 0 0 200 200;" xml:space="preserve">
<style type="text/css">
	.st0{fill:#AE7096;}
	.st1{fill:#EA6638;}
	.st2{fill:#45D884;}
</style>
<g>
	<path class="st1" d="M162.62,143.9h-8.42c11.08-12.97,17.14-29.27,17.14-46.52c0-27.07-15.47-52.02-39.57-64.14
		c0.42-2.93-0.48-6.01-2.73-8.26c-1.84-1.84-4.28-2.85-6.87-2.85c-2.6,0-5.04,1.01-6.87,2.85c-3.79,3.79-3.79,9.96,0,13.75
		c1.84,1.84,4.28,2.85,6.87,2.85c2.6,0,5.04-1.01,6.87-2.85c0.29-0.29,0.56-0.61,0.8-0.93c22.28,11.34,36.55,34.48,36.55,59.58
		c0,15.74-5.41,30.65-15.35,42.6v-7.64c0-1.37-1.11-2.47-2.47-2.47s-2.47,1.11-2.47,2.47v14.03c0,0.02,0.01,0.04,0.01,0.06
		c0,0.14,0.01,0.28,0.04,0.42c0.02,0.08,0.04,0.15,0.07,0.22c0.02,0.08,0.04,0.16,0.08,0.24c0.03,0.08,0.08,0.15,0.12,0.23
		c0.04,0.07,0.07,0.14,0.11,0.2c0.08,0.12,0.17,0.23,0.27,0.33c0.01,0.01,0.02,0.03,0.04,0.05c0.01,0.01,0.03,0.02,0.04,0.04
		c0.1,0.1,0.21,0.19,0.33,0.27c0.07,0.04,0.14,0.08,0.21,0.11c0.07,0.04,0.14,0.08,0.22,0.11c0.09,0.04,0.18,0.06,0.26,0.08
		c0.07,0.02,0.13,0.05,0.2,0.06c0.16,0.03,0.32,0.05,0.48,0.05h14.04c1.37,0,2.47-1.11,2.47-2.47S163.99,143.9,162.62,143.9z
		 M125.55,35.23c-0.9,0.9-2.1,1.4-3.38,1.4s-2.47-0.5-3.38-1.4c-1.86-1.86-1.86-4.89,0-6.75c0.9-0.9,2.1-1.4,3.38-1.4
		s2.47,0.5,3.38,1.4C127.41,30.34,127.41,33.37,125.55,35.23z"/>
	<path class="st1" d="M136.48,152.97c-3.79-3.79-9.96-3.79-13.75,0c-1.84,1.84-2.85,4.28-2.85,6.87c0,0.4,0.03,0.79,0.08,1.17
		c-6.56,2.1-13.4,3.17-20.38,3.17c-15.74,0-30.65-5.41-42.6-15.35h7.64c1.37,0,2.47-1.11,2.47-2.47s-1.11-2.47-2.47-2.47H50.6
		c-0.16,0-0.32,0.02-0.49,0.05c-0.07,0.01-0.14,0.04-0.21,0.06c-0.09,0.03-0.17,0.04-0.25,0.08c-0.08,0.03-0.16,0.08-0.23,0.12
		c-0.06,0.03-0.13,0.06-0.19,0.1c-0.27,0.18-0.5,0.41-0.69,0.69c-0.04,0.05-0.06,0.11-0.09,0.17c-0.05,0.09-0.1,0.17-0.14,0.26
		c-0.03,0.07-0.05,0.15-0.07,0.22c-0.02,0.08-0.05,0.16-0.07,0.24c-0.03,0.14-0.04,0.28-0.04,0.42c0,0.02-0.01,0.04-0.01,0.07v14.04
		c0,1.37,1.11,2.47,2.47,2.47c1.37,0,2.47-1.11,2.47-2.47V152c12.97,11.08,29.27,17.14,46.52,17.14c7.6,0,15.06-1.19,22.21-3.52
		c0.28,0.38,0.59,0.76,0.93,1.1c1.9,1.89,4.38,2.84,6.87,2.84c2.49,0,4.98-0.95,6.87-2.84c0,0,0,0,0,0
		C140.27,162.93,140.27,156.76,136.48,152.97z M132.98,163.22c-1.86,1.86-4.89,1.86-6.75,0c-0.9-0.9-1.4-2.1-1.4-3.38
		c0-1.28,0.5-2.47,1.4-3.38c0.93-0.93,2.15-1.4,3.38-1.4c1.22,0,2.45,0.47,3.38,1.4C134.84,158.33,134.84,161.36,132.98,163.22z"/>
	<path class="st1" d="M102.01,27.61c-0.02-0.1-0.06-0.2-0.09-0.3c-0.02-0.05-0.03-0.11-0.05-0.16c-0.05-0.11-0.11-0.22-0.17-0.32
		c-0.02-0.03-0.03-0.07-0.06-0.1c-0.09-0.14-0.19-0.26-0.31-0.38l-9.92-9.93c-0.97-0.97-2.53-0.97-3.5,0c-0.97,0.97-0.97,2.53,0,3.5
		l5.96,5.96c-36.9,2.93-66.04,33.87-66.04,71.51c0,7.66,1.21,15.17,3.57,22.36c-0.37,0.28-0.74,0.58-1.08,0.92
		c-3.79,3.79-3.79,9.96,0,13.75c1.89,1.89,4.38,2.84,6.87,2.84c2.49,0,4.98-0.95,6.87-2.84c1.84-1.84,2.85-4.28,2.85-6.87
		c0-2.6-1.01-5.04-2.85-6.87c-2.2-2.2-5.2-3.11-8.07-2.76c-2.13-6.61-3.22-13.5-3.22-20.52c0-34.72,26.63-63.33,60.54-66.51
		l-5.4,5.4c-0.97,0.97-0.97,2.53,0,3.5c0.48,0.48,1.12,0.72,1.75,0.72c0.63,0,1.27-0.24,1.75-0.72l9.92-9.92
		c0.11-0.11,0.22-0.24,0.31-0.38c0.02-0.03,0.04-0.07,0.06-0.1c0.06-0.1,0.12-0.21,0.17-0.32c0.02-0.05,0.03-0.11,0.05-0.16
		c0.03-0.1,0.07-0.2,0.09-0.3c0.03-0.16,0.05-0.32,0.05-0.49C102.06,27.93,102.04,27.77,102.01,27.61z M33.82,124.16
		c0.93-0.93,2.15-1.4,3.38-1.4c1.22,0,2.45,0.47,3.38,1.4c0.9,0.9,1.4,2.1,1.4,3.38c0,1.28-0.5,2.47-1.4,3.38c0,0,0,0,0,0
		c-1.86,1.86-4.89,1.86-6.75,0C31.96,129.05,31.96,126.02,33.82,124.16z"/>
	<path class="st1" d="M143.38,69.75c0-0.94-0.53-1.8-1.38-2.22c-0.84-0.42-1.85-0.32-2.6,0.25l-16.69,12.74V69.75
		c0-0.94-0.53-1.8-1.38-2.22c-0.84-0.42-1.85-0.32-2.6,0.25l-16.69,12.74V69.75c0-0.94-0.53-1.8-1.38-2.22
		c-0.84-0.42-1.85-0.32-2.6,0.25L81.4,80.52V69.75c0-0.94-0.53-1.8-1.38-2.22c-0.84-0.42-1.85-0.32-2.6,0.25L56.77,83.55
		c-0.68,0.52-1.02,1.34-0.96,2.16c0,0.05-0.02,0.1-0.02,0.15v29.44c0,1.37,1.11,2.47,2.47,2.47h82.64c1.37,0,2.47-1.11,2.47-2.47
		V85.87c0-0.06-0.01-0.12-0.02-0.18c0-0.06,0.02-0.12,0.02-0.18V69.75z M117.78,74.75v8.3H106.9L117.78,74.75z M97.12,74.75v8.3
		H86.24L97.12,74.75z M76.45,74.75v8.3H65.58L76.45,74.75z M138.44,103.27h-71.9c-1.37,0-2.47,1.11-2.47,2.47
		c0,1.37,1.11,2.47,2.47,2.47h71.9v4.63H60.74v-24.5h77.69V103.27z M138.44,83.05h-10.87l10.87-8.3V83.05z"/>
</g>
</svg>
