<?xml version="1.0" encoding="utf-8"?>
<!-- Generator: Adobe Illustrator 24.1.0, SVG Export Plug-In . SVG Version: 6.00 Build 0)  -->
<svg version="1.1" id="Layer_1" xmlns="http://www.w3.org/2000/svg" xmlns:xlink="http://www.w3.org/1999/xlink" x="0px" y="0px"
	 viewBox="0 0 200 200" style="enable-background:new 0 0 200 200;" xml:space="preserve">
<style type="text/css">
	.st0{fill:#AE7096;}
	.st1{fill:#EA6638;}
	.st2{fill:#45D884;}
</style>
<path class="st0" d="M170.65,89.25c-2.46-2.42-5.67-3.8-9.08-3.99c-1.62-6.87-4.36-13.36-8.17-19.33
	c4.83-5.54,4.61-13.97-0.68-19.21c-2.65-2.63-6.16-4.07-9.89-4.07c-0.02,0-0.04,0-0.07,0c-3.46,0.02-6.71,1.28-9.26,3.56
	c-6-3.75-12.51-6.43-19.4-7.99c-0.47-7.33-6.56-13.16-14.01-13.16c-7.75,0-14.06,6.31-14.06,14.06s6.31,14.06,14.06,14.06
	c6.34,0,11.72-4.23,13.46-10.01c5.97,1.41,11.62,3.74,16.87,6.95c-1.08,2.03-1.65,4.3-1.64,6.66c0.02,3.75,1.49,7.28,4.16,9.92v0
	c2.65,2.63,6.16,4.07,9.89,4.07c0.02,0,0.04,0,0.07,0c2.36-0.01,4.63-0.6,6.65-1.7c3.26,5.22,5.64,10.85,7.1,16.8
	c-5.77,1.79-9.95,7.2-9.89,13.55c0.06,6.34,4.34,11.67,10.14,13.36c-1.35,5.99-3.63,11.66-6.8,16.94
	c-5.36-2.78-12.13-1.88-16.56,2.66c-2.62,2.69-4.03,6.24-3.98,10c0.03,2.36,0.64,4.62,1.76,6.63c-5.49,3.5-11.45,6.02-17.77,7.51
	c-1.74-5.78-7.11-10.01-13.46-10.01c-6.34,0-11.71,4.23-13.46,10.01c-5.97-1.41-11.63-3.74-16.87-6.95
	c2.83-5.33,1.99-12.12-2.51-16.58c-4.51-4.46-11.29-5.24-16.6-2.36c-3.26-5.22-5.64-10.85-7.1-16.81c5.77-1.79,9.95-7.2,9.89-13.55
	c-0.03-3.75-1.53-7.27-4.21-9.9c-1.69-1.66-3.71-2.84-5.93-3.48c2.12-9.34,6.5-17.96,12.81-25.21l2.56,11.79
	c0.25,1.16,1.28,1.95,2.41,1.95c0.17,0,0.35-0.02,0.53-0.06c1.33-0.29,2.18-1.61,1.89-2.94l-3.9-17.99
	c-0.14-0.64-0.53-1.2-1.08-1.55c-0.55-0.35-1.22-0.48-1.86-0.34l-17.99,3.9c-1.33,0.29-2.18,1.61-1.89,2.94
	c0.29,1.33,1.6,2.18,2.94,1.89l12.56-2.72c-6.92,8-11.7,17.53-13.93,27.85c-7.32,0.54-13.09,6.69-13.02,14.13
	c0.07,7.45,5.95,13.49,13.29,13.89c1.62,6.88,4.36,13.36,8.17,19.33c-4.83,5.54-4.61,13.97,0.68,19.22
	c2.74,2.71,6.31,4.06,9.89,4.06c3.34,0,6.67-1.2,9.33-3.55c6,3.75,12.51,6.43,19.4,7.99c0.47,7.33,6.56,13.16,14.01,13.16
	c7.45,0,13.55-5.83,14.01-13.16c7.27-1.64,14.11-4.53,20.37-8.61c2.63,2.25,5.88,3.39,9.13,3.39c3.66,0,7.33-1.42,10.08-4.25
	c2.62-2.69,4.03-6.24,3.98-9.99c-0.05-3.46-1.34-6.69-3.65-9.23c3.7-6.04,6.32-12.57,7.81-19.47c3.42-0.24,6.59-1.69,9.01-4.16
	c2.63-2.68,4.06-6.22,4.03-9.98C174.82,95.39,173.33,91.88,170.65,89.25z M100.08,48.22c-5.02,0-9.11-4.09-9.11-9.11
	S95.06,30,100.08,30s9.11,4.09,9.11,9.11S105.11,48.22,100.08,48.22z M149.29,63.11c-1.71,1.73-4,2.69-6.43,2.7
	c-0.01,0-0.03,0-0.04,0c-2.42,0-4.69-0.94-6.41-2.64c-1.73-1.71-2.69-4-2.7-6.43c-0.01-2.43,0.93-4.73,2.64-6.45
	c1.71-1.73,4-2.69,6.43-2.7c2.43,0,4.73,0.93,6.45,2.64C152.8,53.76,152.83,59.54,149.29,63.11z M39.37,109.49
	c-4.98,0-9.06-4.03-9.11-9.03c-0.05-5.02,4-9.15,9.03-9.19c2.45,0.02,4.73,0.9,6.47,2.61c1.74,1.7,2.71,3.98,2.73,6.42
	c0.05,5.02-4,9.15-9.03,9.19C39.42,109.49,39.39,109.49,39.37,109.49z M63.82,149.37c-3.54,3.57-9.32,3.59-12.89,0.06
	c-3.57-3.54-3.59-9.32-0.06-12.88c1.78-1.8,4.13-2.69,6.47-2.69c2.32,0,4.64,0.88,6.41,2.64C67.33,140.02,67.35,145.8,63.82,149.37z
	 M100.08,169.66c-5.02,0-9.11-4.09-9.11-9.11s4.09-9.11,9.11-9.11s9.11,4.09,9.11,9.11S105.11,169.66,100.08,169.66z M150.13,148.53
	c-3.5,3.6-9.28,3.68-12.88,0.18c-3.6-3.5-3.68-9.28-0.18-12.88c3.5-3.6,9.28-3.68,12.88-0.18c1.74,1.7,2.72,3.97,2.76,6.41
	C152.74,144.48,151.83,146.78,150.13,148.53z M167.3,105.66c-1.71,1.74-3.98,2.7-6.42,2.73c-0.03,0-0.06,0-0.09,0
	c-4.98,0-9.06-4.03-9.11-9.03c-0.05-5.02,4-9.15,9.03-9.19c0.03,0,0.06,0,0.08,0c4.99,0,9.06,4.03,9.11,9.03
	C169.93,101.63,169.01,103.92,167.3,105.66z"/>
</svg>
