<?xml version="1.0" encoding="utf-8"?>
<!-- Generator: Adobe Illustrator 24.1.0, SVG Export Plug-In . SVG Version: 6.00 Build 0)  -->
<svg version="1.1" id="Layer_1" xmlns="http://www.w3.org/2000/svg" xmlns:xlink="http://www.w3.org/1999/xlink" x="0px" y="0px"
	 viewBox="0 0 200 200" style="enable-background:new 0 0 200 200;" xml:space="preserve">
<style type="text/css">
	.st0{fill:#AE7096;}
	.st1{fill:#EA6638;}
	.st2{fill:#45D884;}
</style>
<g>
	<path class="st1" d="M97.73,116.16c-1.37,0-2.47,1.11-2.47,2.47v8.73c0,1.37,1.11,2.47,2.47,2.47s2.47-1.11,2.47-2.47v-8.73
		C100.2,117.26,99.1,116.16,97.73,116.16z"/>
	<path class="st1" d="M83.23,139.66h29.01c1.37,0,2.47-1.11,2.47-2.47v-29.01c0-1.37-1.11-2.47-2.47-2.47h-0.91v-3.1
		c0-7.5-6.1-13.6-13.6-13.6c-7.5,0-13.6,6.1-13.6,13.6v3.1h-0.91c-1.37,0-2.47,1.11-2.47,2.47v29.01
		C80.76,138.55,81.86,139.66,83.23,139.66z M89.08,102.61c0-4.77,3.88-8.65,8.65-8.65c4.77,0,8.65,3.88,8.65,8.65v3.1h-17.3V102.61z
		 M85.7,110.65h24.06v24.06H85.7V110.65z"/>
	<path class="st1" d="M169.84,56.28h-61.06L98.8,44.81c-2.6-2.99-6.37-4.71-10.34-4.71H58.02c-1.37,0-2.47,1.11-2.47,2.47v13.72
		H41.82c-1.37,0-2.47,1.11-2.47,2.47v16.18v18.58v62.24c0,1.37,1.11,2.47,2.47,2.47h111.82c1.37,0,2.47-1.11,2.47-2.47v-13.72h13.72
		c1.37,0,2.47-1.11,2.47-2.47V58.75C172.31,57.39,171.2,56.28,169.84,56.28z M151.17,153.29H44.29V93.52V74.95V61.24h27.97
		c2.53,0,4.94,1.1,6.61,3.01l7.15,8.23H58.61c-1.37,0-2.47,1.11-2.47,2.47s1.11,2.47,2.47,2.47h92.56V153.29z M167.37,137.09h-11.25
		V74.95c0-1.37-1.11-2.47-2.47-2.47H92.58L82.61,61c-2.6-2.99-6.37-4.71-10.34-4.71H60.49V45.04h27.97c2.53,0,4.94,1.1,6.61,3.01
		l7.15,8.23H91.45c-1.37,0-2.47,1.11-2.47,2.47c0,1.37,1.11,2.47,2.47,2.47h75.91V137.09z"/>
</g>
</svg>
