<?xml version="1.0" encoding="utf-8"?>
<svg version="1.1" id="InWhite" xmlns="http://www.w3.org/2000/svg"
	xmlns:xlink="http://www.w3.org/1999/xlink" x="0px" y="0px" viewBox="0 0 87 87"
	style="enable-background:new 0 0 87 87" xml:space="preserve"><style type="text/css">
	.st0{fill-rule:evenodd;clip-rule:evenodd;fill:#ffffff;}
	.st1{fill:#fff;}
</style>
<path class="st0" d="M70.51,0.98H15.05c-7.66,0-13.87,6.21-13.87,13.87v55.46c0,7.66,6.21,13.87,13.87,13.87h55.46
	c7.66,0,13.87-6.21,13.87-13.87c0,0,0,0,0,0V14.85C84.38,7.19,78.17,0.98,70.51,0.98z M28.9,63.4H18.5l0-31.22H28.9V63.4z
	 M28.91,23.52c-0.01,2.86-2.33,5.18-5.19,5.19H23.7c-2.87,0-5.2-2.33-5.2-5.21c0-2.87,2.33-5.2,5.21-5.2
	C26.58,18.3,28.91,20.63,28.91,23.52C28.91,23.51,28.91,23.51,28.91,23.52z M67.07,63.4H56.66V46.05c0-3.86-1.15-5.78-4.74-5.78
	c-3.04-0.09-5.58,2.29-5.68,5.33c0,0.15,0,0.29,0,0.44V63.4h-10.4V32.18h10.41v5.2c0,0,1.94-5.2,10.41-5.2
	c6.52,0,10.41,5.05,10.41,13.88V63.4z"></path>
	<g><path class="st1" d="M83.83,25.56c0.29-6.47-2.08-12.77-6.55-17.46c-4.65-4.56-10.95-7.04-17.46-6.86h-34.3
		c-0.85-0.05-1.71-0.05-2.56,0C10.25,1.95,0.51,12.84,1.22,25.56v34.29c-0.33,6.63,2.17,13.08,6.86,17.77
		c4.71,4.42,11,6.78,17.46,6.55h33.98c6.46,0.23,12.74-2.13,17.46-6.55c4.57-4.77,7.04-11.17,6.86-17.77L83.83,25.56z M76.32,59.85
		c0.24,4.53-1.45,8.95-4.66,12.16c-3.32,2.99-7.69,4.56-12.16,4.36H25.52c-4.46,0.14-8.81-1.42-12.16-4.36
		c-3.17-3.36-4.85-7.86-4.66-12.47V25.25c-0.2-4.47,1.37-8.84,4.36-12.16c3.32-2.99,7.69-4.56,12.16-4.36h34.29
		c4.62-0.23,9.12,1.46,12.44,4.67c2.95,3.35,4.51,7.7,4.36,12.16V59.85z"></path><path class="st1" d="M64.5,25.25c-2.72,0.04-4.95-2.14-4.99-4.86c0-0.04,0-0.09,0-0.13c-0.04-2.72,2.14-4.95,4.85-4.99
		c0.05,0,0.1,0,0.15,0c2.72-0.04,4.95,2.14,4.99,4.86c0,0.04,0,0.09,0,0.13c0.04,2.72-2.14,4.95-4.85,4.99c-0.04,0-0.09,0-0.13,0
		H64.5z"></path></g>
</svg>