<?xml version="1.0" encoding="utf-8"?>
<!-- Generator: Adobe Illustrator 24.1.0, SVG Export Plug-In . SVG Version: 6.00 Build 0)  -->
<svg version="1.1" id="Layer_1" xmlns="http://www.w3.org/2000/svg" xmlns:xlink="http://www.w3.org/1999/xlink" x="0px" y="0px"
	 viewBox="0 0 797 170" style="enable-background:new 0 0 797 170;" xml:space="preserve">
<g>
	<path id="Path_1_2_" d="M144.66,25.19l-24.42,34.85c-7.74-5.88-17.14-9.14-26.86-9.32c-9.52-0.21-18.73,3.43-25.53,10.1
		c-6.86,6.47-10.67,15.54-10.47,24.97c-0.24,9.6,3.56,18.86,10.47,25.52c6.76,6.74,15.98,10.42,25.53,10.21
		c5.19,0.06,10.34-1,15.09-3.11c4.42-1.66,8.49-4.15,11.99-7.32l23.52,34.85c-6.49,5.78-13.64,10.77-21.31,14.87
		c-11.6,5.42-24.25,8.22-37.05,8.21c-21.5,0.64-42.27-7.87-57.13-23.42C13.28,129.56,5.16,108.08,5.94,85.99
		c-0.65-22.11,7.49-43.58,22.64-59.7C43.33,10.45,64.19,1.72,85.83,2.32C92,2.27,98.17,2.79,104.25,3.87
		c5.83,1.15,11.49,3.02,16.87,5.55c8.54,4.12,16.46,9.42,23.52,15.76"/>
	<path id="Path_3_2_" d="M307.47,149.04l12.89-41.94l5.11,5.11c4.85,4.14,10.05,7.85,15.54,11.09c6.51,3.95,13.92,6.17,21.52,6.44
		c4.03,0.12,7.99-1.04,11.32-3.33c2.9-1.83,4.66-5.01,4.66-8.43c-0.07-2.78-1.6-5.31-4.03-6.66c-6-2.67-12.24-4.75-18.64-6.21
		l-6.22-1.77c-3.25-1.03-5.77-1.92-7.55-2.67c-8.58-3.61-15.99-9.52-21.42-17.09c-5.39-7.5-8.23-16.54-8.1-25.78
		c0.1-7.23,1.69-14.36,4.66-20.94c2.96-6.95,7.26-13.25,12.65-18.53c12.94-11.21,29.73-16.94,46.83-15.97
		c16.81-0.02,33.33,4.34,47.94,12.65l-15.31,38.84c-9.28-7.19-20.47-11.52-32.17-12.45c-8.59,0-12.89,3.11-12.89,9.32
		c0.16,1.67,0.73,3.27,1.67,4.66c6.05,4.23,12.94,7.11,20.19,8.43c9.73,2.42,18.89,6.72,26.97,12.65
		c10.1,8.75,15.52,21.73,14.64,35.06c0.54,15.75-5.82,30.94-17.42,41.61c-12.61,11.1-29.04,16.88-45.83,16.11
		c-20.75-0.06-40.87-7.18-57.04-20.19"/>
	<path id="Subtraction_1_2_" d="M220.3,170c-16.7,0.03-33.03-4.96-46.87-14.31c-13.48-9.1-24.03-21.91-30.37-36.89
		c-11.05-26.1-8.14-56.01,7.73-79.5c9.1-13.48,21.91-24.03,36.89-30.37c26.1-11.05,56.01-8.14,79.5,7.73
		c13.49,9.09,24.06,21.91,30.41,36.89c11.05,26.1,8.14,56.01-7.73,79.5c-9.1,13.5-21.93,24.06-36.93,30.41
		C242.6,167.81,231.5,170.03,220.3,170z M220.3,48.45c-20.77,0.03-37.58,16.89-37.55,37.65c0.03,20.77,16.89,37.58,37.65,37.55
		c20.77-0.03,37.58-16.89,37.55-37.65c-0.02-15.09-9.06-28.71-22.97-34.59C230.34,49.45,225.34,48.44,220.3,48.45z"/>
	<path id="Subtraction_2_2_" d="M708.88,170c-16.7,0.03-33.03-4.96-46.87-14.31c-13.48-9.1-24.03-21.91-30.37-36.89
		c-11.05-26.1-8.14-56.01,7.73-79.5c9.1-13.48,21.91-24.03,36.89-30.37c26.1-11.05,56.01-8.14,79.5,7.73
		c13.49,9.09,24.06,21.91,30.41,36.89c11.05,26.1,8.14,56.01-7.73,79.5c-9.1,13.5-21.93,24.06-36.93,30.41
		C731.19,167.81,720.09,170.03,708.88,170z M708.88,48.45c-20.77,0.03-37.58,16.89-37.55,37.65s16.89,37.58,37.65,37.55
		c20.77-0.03,37.58-16.89,37.55-37.65c-0.02-15.09-9.06-28.71-22.97-34.59C718.92,49.45,713.92,48.44,708.88,48.45z"/>
	<path d="M603.26,5.44h-49.06l-20.86,65.25c-1.75,5.89-3.05,11.9-3.88,17.98c-0.51,3.71-0.88,7.44-1.12,11.18
		c-0.1,1.57-0.18,2.47-0.26,2.73c-0.08-0.26-0.16-1.16-0.26-2.73c-0.24-3.74-0.61-7.47-1.12-11.18c-0.83-6.08-2.13-12.09-3.88-17.98
		L501.93,5.44h-49.06L436,165.46h47.95l4.66-59.04l0.44-14.2L488.82,82c0-1.27-0.05-3.03-0.16-5.28c-0.02-0.37,0.03-1.3,0.29-0.02
		c0.88,4.5,3.36,18.77,6.32,29.04l19.98,59.7H528h0.12h12.76l19.98-59.7c2.96-10.27,5.44-24.54,6.32-29.04
		c0.25-1.28,0.3-0.36,0.29,0.02c-0.11,2.26-0.16,4.02-0.16,5.28l-0.23,10.21l0.44,14.2l4.66,59.04h47.95L603.26,5.44z"/>
</g>
</svg>
