<svg xmlns="http://www.w3.org/2000/svg" width="191.448" height="90.957" viewBox="0 0 191.448 90.957">
  <g id="Group_604" data-name="Group 604" transform="translate(-1053.828 -316.756)">
    <path id="Path_2288" data-name="Path 2288" d="M1187.854,317.11a104.532,104.532,0,0,1-22.753,9.954c-21.607,6.5-36.507,3.152-52.615,3.792-13.831.55-33.859,4.251-58.3,19.435l57.067,57.067c24.445-15.184,44.473-18.885,58.3-19.435,16.108-.64,31.008,2.71,52.615-3.792a104.535,104.535,0,0,0,22.753-9.954Z" fill="#485abc"/>
    <g id="Group_597" data-name="Group 597">
      <path id="Path_2289" data-name="Path 2289" d="M1120.146,371.214q-4.117,1.277-8.531,3.008" fill="none" stroke="#1d1d1b" stroke-linecap="round" stroke-linejoin="round" stroke-width="0.709"/>
      <path id="Path_2290" data-name="Path 2290" d="M1138.5,367.206c-3.066.381-6.343.931-9.824,1.712" fill="none" stroke="#1d1d1b" stroke-linecap="round" stroke-linejoin="round" stroke-width="0.709"/>
      <path id="Path_2291" data-name="Path 2291" d="M1160.274,366.625c-3.911-.124-7.767-.233-11.671-.146" fill="none" stroke="#1d1d1b" stroke-linecap="round" stroke-linejoin="round" stroke-width="0.709"/>
      <path id="Path_2292" data-name="Path 2292" d="M1083.284,356.647c-2.5,1.17-5.052,2.454-7.668,3.875" fill="none" stroke="#1d1d1b" stroke-linecap="round" stroke-linejoin="round" stroke-width="0.709"/>
      <path id="Path_2293" data-name="Path 2293" d="M1182.216,366.214c-3.8.408-7.428.579-10.922.609" fill="none" stroke="#1d1d1b" stroke-linecap="round" stroke-linejoin="round" stroke-width="0.709"/>
      <path id="Path_2294" data-name="Path 2294" d="M1090.206,363.6c-2.5,1.171-5.051,2.455-7.667,3.876" fill="none" stroke="#1d1d1b" stroke-linecap="round" stroke-linejoin="round" stroke-width="0.709"/>
      <path id="Path_2295" data-name="Path 2295" d="M1097.128,370.544c-2.5,1.17-5.051,2.455-7.666,3.877" fill="none" stroke="#1d1d1b" stroke-linecap="round" stroke-linejoin="round" stroke-width="0.709"/>
      <path id="Path_2296" data-name="Path 2296" d="M1104.05,377.492c-2.5,1.171-5.051,2.456-7.665,3.878" fill="none" stroke="#1d1d1b" stroke-linecap="round" stroke-linejoin="round" stroke-width="0.709"/>
      <path id="Path_2297" data-name="Path 2297" d="M1188.877,328.029c-2.32,1.184-4.963,2.419-7.916,3.628" fill="none" stroke="#1d1d1b" stroke-linecap="round" stroke-linejoin="round" stroke-width="0.709"/>
      <path id="Path_2298" data-name="Path 2298" d="M1195.8,334.978c-2.321,1.184-4.964,2.418-7.917,3.626" fill="none" stroke="#1d1d1b" stroke-linecap="round" stroke-linejoin="round" stroke-width="0.709"/>
      <path id="Path_2299" data-name="Path 2299" d="M1173,334.534c-.459.145-.9.3-1.368.44-2.678.806-5.251,1.458-7.738,1.988" fill="none" stroke="#1d1d1b" stroke-linecap="round" stroke-linejoin="round" stroke-width="0.709"/>
      <path id="Path_2300" data-name="Path 2300" d="M1209.643,348.876c-2.322,1.184-4.966,2.416-7.919,3.623" fill="none" stroke="#1d1d1b" stroke-linecap="round" stroke-linejoin="round" stroke-width="0.709"/>
      <path id="Path_2301" data-name="Path 2301" d="M1216.565,355.825c-2.323,1.183-4.967,2.415-7.92,3.621" fill="none" stroke="#1d1d1b" stroke-linecap="round" stroke-linejoin="round" stroke-width="0.709"/>
      <path id="Path_2302" data-name="Path 2302" d="M1200.684,362.319c-.433.137-.847.281-1.289.415-2.708.815-5.311,1.474-7.824,2.007" fill="none" stroke="#1d1d1b" stroke-linecap="round" stroke-linejoin="round" stroke-width="0.709"/>
      <path id="Path_2303" data-name="Path 2303" d="M1202.721,341.927c-2.322,1.184-4.965,2.417-7.918,3.624" fill="none" stroke="#1d1d1b" stroke-linecap="round" stroke-linejoin="round" stroke-width="0.709"/>
      <path id="Path_2304" data-name="Path 2304" d="M1175.3,359.271c-3.8.41-7.426.581-10.92.611" fill="none" stroke="#1d1d1b" stroke-linecap="round" stroke-linejoin="round" stroke-width="0.709"/>
      <path id="Path_2305" data-name="Path 2305" d="M1124.672,353.321c-3.067.379-6.344.927-9.828,1.707" fill="none" stroke="#1d1d1b" stroke-linecap="round" stroke-linejoin="round" stroke-width="0.709"/>
      <path id="Path_2306" data-name="Path 2306" d="M1113.226,364.268q-4.117,1.275-8.531,3.007" fill="none" stroke="#1d1d1b" stroke-linecap="round" stroke-linejoin="round" stroke-width="0.709"/>
      <path id="Path_2307" data-name="Path 2307" d="M1153.362,359.686c-3.912-.124-7.769-.234-11.673-.147" fill="none" stroke="#1d1d1b" stroke-linecap="round" stroke-linejoin="round" stroke-width="0.709"/>
      <path id="Path_2308" data-name="Path 2308" d="M1131.588,360.264c-3.066.38-6.344.928-9.826,1.709" fill="none" stroke="#1d1d1b" stroke-linecap="round" stroke-linejoin="round" stroke-width="0.709"/>
      <path id="Path_2309" data-name="Path 2309" d="M1186.844,348.426c-.447.142-.873.29-1.329.428-2.692.81-5.28,1.467-7.78,2" fill="none" stroke="#1d1d1b" stroke-linecap="round" stroke-linejoin="round" stroke-width="0.709"/>
      <path id="Path_2310" data-name="Path 2310" d="M1168.384,352.329c-3.8.41-7.425.583-10.918.613" fill="none" stroke="#1d1d1b" stroke-linecap="round" stroke-linejoin="round" stroke-width="0.709"/>
      <path id="Path_2311" data-name="Path 2311" d="M1146.449,352.747c-3.912-.124-7.769-.234-11.675-.149" fill="none" stroke="#1d1d1b" stroke-linecap="round" stroke-linejoin="round" stroke-width="0.709"/>
      <path id="Path_2312" data-name="Path 2312" d="M1179.924,341.48c-.453.143-.886.294-1.349.434-2.684.808-5.265,1.462-7.758,1.993" fill="none" stroke="#1d1d1b" stroke-linecap="round" stroke-linejoin="round" stroke-width="0.709"/>
      <path id="Path_2313" data-name="Path 2313" d="M1154.552,338.444c-3.8.412-7.422.585-10.913.617" fill="none" stroke="#1d1d1b" stroke-linecap="round" stroke-linejoin="round" stroke-width="0.709"/>
      <path id="Path_2314" data-name="Path 2314" d="M1117.756,346.378c-3.067.379-6.345.927-9.83,1.706" fill="none" stroke="#1d1d1b" stroke-linecap="round" stroke-linejoin="round" stroke-width="0.709"/>
      <path id="Path_2315" data-name="Path 2315" d="M1161.468,345.386c-3.8.411-7.423.584-10.915.616" fill="none" stroke="#1d1d1b" stroke-linecap="round" stroke-linejoin="round" stroke-width="0.709"/>
      <path id="Path_2316" data-name="Path 2316" d="M1139.537,345.808c-3.913-.124-7.771-.235-11.677-.15" fill="none" stroke="#1d1d1b" stroke-linecap="round" stroke-linejoin="round" stroke-width="0.709"/>
      <path id="Path_2317" data-name="Path 2317" d="M1099.387,350.376q-4.117,1.273-8.534,3" fill="none" stroke="#1d1d1b" stroke-linecap="round" stroke-linejoin="round" stroke-width="0.709"/>
      <path id="Path_2318" data-name="Path 2318" d="M1193.764,355.373c-.44.139-.86.285-1.309.421-2.7.812-5.295,1.471-7.8,2" fill="none" stroke="#1d1d1b" stroke-linecap="round" stroke-linejoin="round" stroke-width="0.709"/>
      <path id="Path_2319" data-name="Path 2319" d="M1106.307,357.322q-4.119,1.273-8.533,3.006" fill="none" stroke="#1d1d1b" stroke-linecap="round" stroke-linejoin="round" stroke-width="0.709"/>
      <path id="Path_2320" data-name="Path 2320" d="M1092.467,343.429q-4.117,1.274-8.535,3" fill="none" stroke="#1d1d1b" stroke-linecap="round" stroke-linejoin="round" stroke-width="0.709"/>
      <path id="Path_2321" data-name="Path 2321" d="M1076.363,349.7c-2.5,1.169-5.054,2.452-7.669,3.874" fill="none" stroke="#1d1d1b" stroke-linecap="round" stroke-linejoin="round" stroke-width="0.709"/>
      <path id="Path_2322" data-name="Path 2322" d="M1167.186,373.564c-3.909-.124-7.765-.232-11.669-.144" fill="none" stroke="#1d1d1b" stroke-linecap="round" stroke-linejoin="round" stroke-width="0.709"/>
      <path id="Path_2323" data-name="Path 2323" d="M1162.431,380.36c3.9-.089,7.759.019,11.668.143" fill="none" stroke="#1d1d1b" stroke-linecap="round" stroke-linejoin="round" stroke-width="0.709"/>
      <path id="Path_2324" data-name="Path 2324" d="M1223.487,362.774c-2.324,1.183-4.968,2.414-7.921,3.62" fill="none" stroke="#1d1d1b" stroke-linecap="round" stroke-linejoin="round" stroke-width="0.709"/>
      <path id="Path_2325" data-name="Path 2325" d="M1222.487,373.341c2.953-1.2,5.6-2.435,7.922-3.617" fill="none" stroke="#1d1d1b" stroke-linecap="round" stroke-linejoin="round" stroke-width="0.709"/>
      <path id="Path_2326" data-name="Path 2326" d="M1145.42,374.148c-3.065.382-6.341.933-9.821,1.715" fill="none" stroke="#1d1d1b" stroke-linecap="round" stroke-linejoin="round" stroke-width="0.709"/>
      <path id="Path_2327" data-name="Path 2327" d="M1142.517,382.808c3.479-.782,6.755-1.334,9.819-1.717" fill="none" stroke="#1d1d1b" stroke-linecap="round" stroke-linejoin="round" stroke-width="0.709"/>
      <path id="Path_2328" data-name="Path 2328" d="M1189.133,373.157c-3.805.407-7.43.577-10.926.606" fill="none" stroke="#1d1d1b" stroke-linecap="round" stroke-linejoin="round" stroke-width="0.709"/>
      <path id="Path_2329" data-name="Path 2329" d="M1185.121,380.7c3.5-.028,7.123-.2,10.928-.6" fill="none" stroke="#1d1d1b" stroke-linecap="round" stroke-linejoin="round" stroke-width="0.709"/>
      <path id="Path_2330" data-name="Path 2330" d="M1110.972,384.44c-2.5,1.172-5.05,2.457-7.665,3.88" fill="none" stroke="#1d1d1b" stroke-linecap="round" stroke-linejoin="round" stroke-width="0.709"/>
      <path id="Path_2331" data-name="Path 2331" d="M1110.23,395.269q3.921-2.133,7.664-3.88" fill="none" stroke="#1d1d1b" stroke-linecap="round" stroke-linejoin="round" stroke-width="0.709"/>
      <path id="Path_2332" data-name="Path 2332" d="M1127.065,378.161q-4.116,1.276-8.529,3.009" fill="none" stroke="#1d1d1b" stroke-linecap="round" stroke-linejoin="round" stroke-width="0.709"/>
      <path id="Path_2333" data-name="Path 2333" d="M1125.457,388.117q4.411-1.742,8.528-3.01" fill="none" stroke="#1d1d1b" stroke-linecap="round" stroke-linejoin="round" stroke-width="0.709"/>
      <path id="Path_2334" data-name="Path 2334" d="M1207.6,369.265c-.427.135-.833.277-1.269.409-2.716.817-5.326,1.477-7.846,2.011" fill="none" stroke="#1d1d1b" stroke-linecap="round" stroke-linejoin="round" stroke-width="0.709"/>
      <path id="Path_2335" data-name="Path 2335" d="M1205.407,378.629c2.527-.534,5.144-1.2,7.868-2.016.429-.129.829-.269,1.249-.4" fill="none" stroke="#1d1d1b" stroke-linecap="round" stroke-linejoin="round" stroke-width="0.709"/>
      <path id="Path_2336" data-name="Path 2336" d="M1110.839,339.436c-3.067.378-6.346.925-9.831,1.7" fill="none" stroke="#1d1d1b" stroke-linecap="round" stroke-linejoin="round" stroke-width="0.709"/>
      <path id="Path_2337" data-name="Path 2337" d="M1132.624,338.869c-3.914-.124-7.772-.236-11.678-.152" fill="none" stroke="#1d1d1b" stroke-linecap="round" stroke-linejoin="round" stroke-width="0.709"/>
      <path id="Path_2338" data-name="Path 2338" d="M1187.854,317.11a104.532,104.532,0,0,1-22.753,9.954c-21.607,6.5-36.507,3.152-52.615,3.792-13.831.55-33.859,4.251-58.3,19.435l57.067,57.067c24.445-15.184,44.473-18.885,58.3-19.435,12.081-.48,23.482,1.284,37.843-.586a93.189,93.189,0,0,0,14.772-3.206,104.535,104.535,0,0,0,22.753-9.954Z" fill="none" stroke="#1d1d1b" stroke-linecap="round" stroke-linejoin="round" stroke-width="0.709"/>
    </g>
  </g>
</svg>
