<svg xmlns="http://www.w3.org/2000/svg" width="192.324" height="111.322" viewBox="0 0 192.324 111.322">
  <g id="Group_602" data-name="Group 602" transform="translate(-1053.169 -585.788)">
    <path id="Path_2342" data-name="Path 2342" d="M1232.856,636.1,1182.9,586.142,1065.879,615.19c0,12.254-12.208,14.64-12.208,14.64v9.662l57.263,57.263,134.13-33.294V653.8C1232.687,645.853,1232.856,636.1,1232.856,636.1Z" fill="#485abc"/>
    <g id="Group_601" data-name="Group 601">
      <g id="Group_600" data-name="Group 600">
        <path id="Path_2343" data-name="Path 2343" d="M1232.856,636.1,1182.9,586.142,1065.879,615.19l49.958,49.958Z" fill="none" stroke="#1d1d1b" stroke-linecap="round" stroke-linejoin="round" stroke-width="0.709"/>
        <path id="Path_2344" data-name="Path 2344" d="M1053.671,629.83l57.263,57.263L1245.064,653.8" fill="none" stroke="#1d1d1b" stroke-linecap="round" stroke-linejoin="round" stroke-width="0.709"/>
        <path id="Path_2345" data-name="Path 2345" d="M1053.671,639.492l57.263,57.263,134.131-33.295" fill="none" stroke="#1d1d1b" stroke-linecap="round" stroke-linejoin="round" stroke-width="0.709"/>
        <line id="Line_67" data-name="Line 67" x1="117.019" y2="29.047" transform="translate(1090.858 611.121)" fill="none" stroke="#1d1d1b" stroke-linecap="round" stroke-linejoin="round" stroke-width="0.709"/>
        <line id="Line_68" data-name="Line 68" x2="49.958" y2="49.958" transform="translate(1124.389 600.666)" fill="none" stroke="#1d1d1b" stroke-linecap="round" stroke-linejoin="round" stroke-width="0.709"/>
        <path id="Path_2346" data-name="Path 2346" d="M1090.858,640.169c0,12.254-12.208,14.64-12.208,14.64v9.662" fill="none" stroke="#1d1d1b" stroke-linecap="round" stroke-linejoin="round" stroke-width="0.709"/>
        <path id="Path_2347" data-name="Path 2347" d="M1115.511,664.822c0,12.255-12.208,14.64-12.208,14.64v9.663" fill="none" stroke="#1d1d1b" stroke-linecap="round" stroke-linejoin="round" stroke-width="0.709"/>
        <path id="Path_2348" data-name="Path 2348" d="M1174.516,650.624s-.169,11.129,12.208,17.7v9.62" fill="none" stroke="#1d1d1b" stroke-linecap="round" stroke-linejoin="round" stroke-width="0.709"/>
        <path id="Path_2349" data-name="Path 2349" d="M1115.837,665.148s-.17,10.375,12.208,17.7v9.662" fill="none" stroke="#1d1d1b" stroke-linecap="round" stroke-linejoin="round" stroke-width="0.709"/>
        <path id="Path_2350" data-name="Path 2350" d="M1053.671,639.492V629.83s12.208-2.386,12.208-14.64" fill="none" stroke="#1d1d1b" stroke-linecap="round" stroke-linejoin="round" stroke-width="0.709"/>
        <path id="Path_2351" data-name="Path 2351" d="M1245.064,663.461V653.8c-12.377-7.945-12.208-17.7-12.208-17.7" fill="none" stroke="#1d1d1b" stroke-linecap="round" stroke-linejoin="round" stroke-width="0.709"/>
      </g>
      <line id="Line_69" data-name="Line 69" y2="9.662" transform="translate(1110.934 687.093)" fill="none" stroke="#1d1d1b" stroke-linecap="round" stroke-linejoin="round" stroke-width="0.709"/>
    </g>
  </g>
</svg>
